<!-- assets/branding/icon.svg -->
<svg width="16" height="16" viewBox="0 0 16 16" xmlns="http://www.w3.org/2000/svg" aria-label="Palimpsest Icon">
  <title>Palimpsest Icon</title>
  <style>
    .icon { fill: #0366d6; }
    @media (prefers-color-scheme: dark) { .icon { fill: #58a6ff; } }
  </style>
  <path class="icon" d="M8 0a8 8 0 1 0 0 16A8 8 0 0 0 8 0ZM4.5 4.5a3.5 3.5 0 1 1 7 0 3.5 3.5 0 0 1-7 0Z"/>
  <path class="icon" d="M8 2a6 6 0 1 0 0 12A6 6 0 0 0 8 2ZM4.5 4.5a3.5 3.5 0 1 1 7 0 3.5 3.5 0 0 1-7 0Z" opacity="0.6"/>
</svg>